<svg width="152" height="25" viewBox="0 0 152 25" fill="none" xmlns="http://www.w3.org/2000/svg">
<path d="M37.2939 18.875C37.829 22.0619 41.0085 23.3924 44.7231 23.3924C48.8785 23.3924 51.9006 21.5979 51.9006 18.1631C51.9006 15.8735 50.5156 14.11 47.5247 13.491L43.8102 12.7484C42.8025 12.5331 42.6138 12.0986 42.6138 11.6656C42.6138 11.1085 43.0546 10.4587 44.4083 10.4587C45.9508 10.4587 46.8952 11.3252 47.0526 12.2843L51.6488 11.387C51.0193 8.69493 48.4063 6.93164 44.4712 6.93164C40.4732 6.93164 37.6716 9.00454 37.6716 12.1917C37.6716 14.6361 39.34 16.1831 42.2678 16.7087L45.4786 17.3279C46.6431 17.5432 47.0526 17.9466 47.0526 18.4725C47.0526 19.1535 46.3284 19.7102 45.0065 19.7102C43.6528 19.7102 42.4251 19.2151 42.2049 17.8846L37.2939 18.875Z" fill="white"/>
<path d="M60.7857 19.0607C58.519 19.0607 57.0079 17.4518 57.0079 15.1622C57.0079 12.9033 58.519 11.2634 60.7857 11.2634C62.391 11.2634 63.6818 12.1299 64.1223 14.0173L68.8446 12.9033C67.963 9.25232 64.6263 6.93188 60.7857 6.93188C56.0634 6.93188 52.1597 10.2735 52.1597 15.1622C52.1597 20.0819 56.0634 23.3927 60.7857 23.3927C64.7205 23.3927 68.0574 21.0102 68.8446 17.3282L64.2168 16.338C63.6818 18.2255 62.391 19.0607 60.7857 19.0607V19.0607Z" fill="white"/>
<path d="M80.049 7.17798C77.4677 7.17798 75.7358 8.5085 74.6029 10.3649V7.39473H69.5659V22.9274H74.6029V18.0693C74.6029 14.0472 76.5232 12.2526 80.049 12.2526H80.9617L81.1807 7.30186C80.8028 7.20925 80.4881 7.17923 80.0475 7.17923L80.049 7.17798Z" fill="white"/>
<path d="M84.7956 0C83.0958 0 81.8994 1.29951 81.8994 2.81551C81.8994 4.39384 83.0958 5.56944 84.7956 5.56944C86.4956 5.56944 87.7233 4.39384 87.7233 2.81551C87.7233 1.29951 86.4956 0 84.7956 0ZM87.3138 22.9278V7.39506H82.2771V22.9278H87.3138Z" fill="white"/>
<path d="M108.906 6.93188C106.451 6.93188 104.562 7.95257 103.303 9.56169C102.233 7.85996 100.344 6.93188 98.1401 6.93188C96.094 6.93188 94.5516 7.64321 93.4813 8.81907V7.39593H88.4443V22.9287H93.4813V15.3169C93.4813 12.7178 94.6776 11.3873 96.5035 11.3873C98.0143 11.3873 99.1791 12.5013 99.1791 14.2649V22.9287H104.216V15.3169C104.216 12.7178 105.444 11.3873 107.301 11.3873C108.781 11.3873 109.945 12.5013 109.945 14.2649V22.9287H114.951V13.2127C114.951 9.4378 112.275 6.93188 108.906 6.93188V6.93188Z" fill="white"/>
<path d="M125.618 6.93045C123.572 6.93045 121.935 7.54918 120.707 8.63218V0.64917H115.67V22.9272H120.707V21.6893C121.935 22.7726 123.572 23.3913 125.618 23.3913C129.805 23.3913 133.331 20.0804 133.331 15.1607C133.331 10.2721 129.805 6.93045 125.618 6.93045ZM124.579 19.1832C122.533 19.1832 120.707 17.574 120.707 15.1607C120.707 12.778 122.533 11.1386 124.579 11.1386C126.783 11.1386 128.388 12.778 128.388 15.1607C128.388 17.574 126.783 19.1832 124.579 19.1832V19.1832Z" fill="white"/>
<path d="M151.709 7.39593H146.672V8.63361C145.445 7.55061 143.808 6.93188 141.761 6.93188C137.575 6.93188 134.049 10.2735 134.049 15.1622C134.049 20.0819 137.575 23.3927 141.761 23.3927C143.808 23.3927 145.445 22.774 146.672 21.6907V22.9286H151.709V7.39593ZM142.8 19.1846C140.597 19.1846 138.991 17.5755 138.991 15.1622C138.991 12.7794 140.597 11.14 142.8 11.14C144.846 11.14 146.672 12.7794 146.672 15.1622C146.672 17.5755 144.846 19.1846 142.8 19.1846V19.1846Z" fill="white"/>
<path d="M28.4824 6.54785H17.8103C16.5265 6.54785 15.4858 7.57074 15.4858 8.83253V9.41834C15.4858 10.6801 16.5265 11.703 17.8103 11.703H28.4824C29.7662 11.703 30.8069 10.6801 30.8069 9.41834V8.83253C30.8069 7.57074 29.7662 6.54785 28.4824 6.54785Z" fill="white"/>
<path d="M22.7113 12.6453H17.5016C16.3883 12.6453 15.4858 13.5323 15.4858 14.6265V15.1345C15.4858 16.2288 16.3883 17.1158 17.5016 17.1158H22.7113C23.8246 17.1158 24.7271 16.2288 24.7271 15.1345V14.6265C24.7271 13.5323 23.8246 12.6453 22.7113 12.6453Z" fill="white"/>
<path d="M22.4004 18.0591H11.7283C10.4445 18.0591 9.40381 19.082 9.40381 20.3438V20.9296C9.40381 22.1914 10.4445 23.2142 11.7283 23.2142H22.4004C23.6841 23.2142 24.7248 22.1914 24.7248 20.9296V20.3438C24.7248 19.082 23.6841 18.0591 22.4004 18.0591Z" fill="white"/>
<path d="M5.45228 18.0591H4.78002C3.49626 18.0591 2.45557 19.082 2.45557 20.3438V20.9296C2.45557 22.1914 3.49626 23.2142 4.78002 23.2142H5.45228C6.73604 23.2142 7.77672 22.1914 7.77672 20.9296V20.3438C7.77672 19.082 6.73604 18.0591 5.45228 18.0591Z" fill="white"/>
<path d="M28.4824 6.54785H17.8103C16.5265 6.54785 15.4858 7.57074 15.4858 8.83253V9.41834C15.4858 10.6801 16.5265 11.703 17.8103 11.703H28.4824C29.7662 11.703 30.8069 10.6801 30.8069 9.41834V8.83253C30.8069 7.57074 29.7662 6.54785 28.4824 6.54785Z" fill="white"/>
<path d="M22.7113 12.6453H17.5016C16.3883 12.6453 15.4858 13.5323 15.4858 14.6265V15.1345C15.4858 16.2288 16.3883 17.1158 17.5016 17.1158H22.7113C23.8246 17.1158 24.7271 16.2288 24.7271 15.1345V14.6265C24.7271 13.5323 23.8246 12.6453 22.7113 12.6453Z" fill="white"/>
<path d="M22.4004 18.0591H11.7283C10.4445 18.0591 9.40381 19.082 9.40381 20.3438V20.9296C9.40381 22.1914 10.4445 23.2142 11.7283 23.2142H22.4004C23.6841 23.2142 24.7248 22.1914 24.7248 20.9296V20.3438C24.7248 19.082 23.6841 18.0591 22.4004 18.0591Z" fill="white"/>
<path d="M5.45228 18.0591H4.78002C3.49626 18.0591 2.45557 19.082 2.45557 20.3438V20.9296C2.45557 22.1914 3.49626 23.2142 4.78002 23.2142H5.45228C6.73604 23.2142 7.77672 22.1914 7.77672 20.9296V20.3438C7.77672 19.082 6.73604 18.0591 5.45228 18.0591Z" fill="white"/>
</svg>
